M48
; DRILL file {KiCad 6.0.2+dfsg-1} date Thu 12 Dec 2024 08:43:16 PM WET
; FORMAT={-:-/ absolute / metric / decimal}
; #@! TF.CreationDate,2024-12-12T20:43:16+00:00
; #@! TF.GenerationSoftware,Kicad,Pcbnew,6.0.2+dfsg-1
; #@! TF.FileFunction,Plated,1,2,PTH
FMAT,2
METRIC
; #@! TA.AperFunction,Plated,PTH,ViaDrill
T1C0.400
; #@! TA.AperFunction,Plated,PTH,ComponentDrill
T2C0.500
; #@! TA.AperFunction,Plated,PTH,ComponentDrill
T3C1.000
; #@! TA.AperFunction,Plated,PTH,ComponentDrill
T4C1.200
; #@! TA.AperFunction,Plated,PTH,ComponentDrill
T5C1.300
; #@! TA.AperFunction,Plated,PTH,ComponentDrill
T6C1.500
; #@! TA.AperFunction,Plated,PTH,ComponentDrill
T7C2.000
; #@! TA.AperFunction,Plated,PTH,ComponentDrill
T8C2.200
; #@! TA.AperFunction,Plated,PTH,ComponentDrill
T9C3.200
%
G90
G05
T1
X75.836Y-100.747
X76.05Y-112.75
X77.05Y-104.85
X77.25Y-93.25
X78.83Y-107.05
X79.65Y-92.65
X80.85Y-96.85
X81.25Y-99.05
X82.5Y-120.5
X82.75Y-91.25
X82.75Y-109.75
X82.85Y-94.45
X82.85Y-96.25
X83.0Y-104.45
X83.05Y-103.65
X83.25Y-88.5
X83.5Y-111.0
X83.85Y-93.05
X83.85Y-95.45
X84.0Y-107.25
X84.0Y-121.75
X85.5Y-88.25
X86.25Y-122.0
X86.75Y-92.25
X86.75Y-95.25
X87.05Y-94.05
X87.05Y-127.45
X87.25Y-134.861
X88.05Y-128.65
X89.25Y-94.65
X89.338Y-134.85
X89.45Y-127.65
X90.0Y-121.0
X90.75Y-93.45
X90.85Y-127.05
X90.85Y-129.05
X91.09Y-136.8
X91.1Y-135.89
X92.25Y-94.25
X92.25Y-125.25
X92.85Y-137.0
X93.5Y-93.25
X93.5Y-95.5
X93.5Y-124.2
X93.5Y-126.45
X93.65Y-131.45
X93.75Y-134.0
X94.5Y-93.25
X94.5Y-95.5
X94.5Y-124.2
X94.5Y-126.45
X95.5Y-93.25
X95.5Y-95.5
X95.5Y-124.2
X95.5Y-126.45
X96.5Y-93.25
X96.5Y-95.5
X96.5Y-124.2
X96.5Y-126.45
X97.5Y-93.25
X97.5Y-95.5
X97.5Y-124.2
X97.5Y-126.45
X100.5Y-87.0
X100.5Y-88.0
X100.5Y-89.0
X100.5Y-90.0
X100.5Y-91.0
X100.5Y-92.0
X100.5Y-93.0
X100.5Y-94.0
X100.5Y-95.0
X100.5Y-96.0
X100.5Y-97.0
X100.5Y-117.508
X100.5Y-118.508
X100.5Y-119.508
X100.5Y-120.508
X100.5Y-121.508
X100.5Y-122.508
X100.5Y-123.508
X100.5Y-124.508
X100.5Y-125.508
X100.5Y-126.508
X100.5Y-127.508
X101.5Y-86.98
X101.5Y-87.98
X101.5Y-88.98
X101.5Y-89.98
X101.5Y-90.98
X101.5Y-91.98
X101.5Y-92.98
X101.5Y-93.98
X101.5Y-94.98
X101.5Y-95.98
X101.5Y-96.98
X101.5Y-117.508
X101.5Y-118.508
X101.5Y-119.508
X101.5Y-120.508
X101.5Y-121.508
X101.5Y-122.508
X101.5Y-123.508
X101.5Y-124.508
X101.5Y-125.508
X101.5Y-126.508
X101.5Y-127.508
X102.5Y-87.0
X102.5Y-88.0
X102.5Y-89.0
X102.5Y-90.0
X102.5Y-91.0
X102.5Y-92.0
X102.5Y-93.0
X102.5Y-94.0
X102.5Y-95.0
X102.5Y-96.0
X102.5Y-97.0
X102.5Y-117.508
X102.5Y-118.508
X102.5Y-119.508
X102.5Y-120.508
X102.5Y-121.508
X102.5Y-122.508
X102.5Y-123.508
X102.5Y-124.508
X102.5Y-125.508
X102.5Y-126.508
X102.5Y-127.508
X103.5Y-87.0
X103.5Y-88.0
X103.5Y-89.0
X103.5Y-90.0
X103.5Y-91.0
X103.5Y-92.0
X103.5Y-93.0
X103.5Y-94.0
X103.5Y-95.0
X103.5Y-96.0
X103.5Y-97.0
X103.5Y-117.5
X103.5Y-118.5
X103.5Y-119.5
X103.5Y-120.5
X103.5Y-121.5
X103.5Y-122.5
X103.5Y-123.5
X103.5Y-124.5
X103.5Y-125.5
X103.5Y-126.5
X103.5Y-127.5
X104.5Y-87.0
X104.5Y-88.0
X104.5Y-89.0
X104.5Y-90.0
X104.5Y-91.0
X104.5Y-92.0
X104.5Y-93.0
X104.5Y-94.0
X104.5Y-95.0
X104.5Y-96.0
X104.5Y-97.0
X104.5Y-117.508
X104.5Y-118.508
X104.5Y-119.508
X104.5Y-120.508
X104.5Y-121.508
X104.5Y-122.508
X104.5Y-123.508
X104.5Y-124.508
X104.5Y-125.508
X104.5Y-126.508
X104.5Y-127.508
X105.5Y-86.98
X105.5Y-87.98
X105.5Y-88.98
X105.5Y-89.98
X105.5Y-90.98
X105.5Y-91.98
X105.5Y-92.98
X105.5Y-93.98
X105.5Y-94.98
X105.5Y-95.98
X105.5Y-96.98
X105.5Y-117.508
X105.5Y-118.508
X105.5Y-119.508
X105.5Y-120.508
X105.5Y-121.508
X105.5Y-122.508
X105.5Y-123.508
X105.5Y-124.508
X105.5Y-125.508
X105.5Y-126.508
X105.5Y-127.508
X106.5Y-87.0
X106.5Y-88.0
X106.5Y-89.0
X106.5Y-90.0
X106.5Y-91.0
X106.5Y-92.0
X106.5Y-93.0
X106.5Y-94.0
X106.5Y-95.0
X106.5Y-96.0
X106.5Y-97.0
X106.5Y-117.508
X106.5Y-118.508
X106.5Y-119.508
X106.5Y-120.508
X106.5Y-121.508
X106.5Y-122.508
X106.5Y-123.508
X106.5Y-124.508
X106.5Y-125.508
X106.5Y-126.508
X106.5Y-127.508
X107.5Y-87.0
X107.5Y-88.0
X107.5Y-89.0
X107.5Y-90.0
X107.5Y-91.0
X107.5Y-92.0
X107.5Y-93.0
X107.5Y-94.0
X107.5Y-95.0
X107.5Y-96.0
X107.5Y-97.0
X107.5Y-117.5
X107.5Y-118.5
X107.5Y-119.5
X107.5Y-120.5
X107.5Y-121.5
X107.5Y-122.5
X107.5Y-123.5
X107.5Y-124.5
X107.5Y-125.5
X107.5Y-126.5
X107.5Y-127.5
X108.5Y-87.0
X108.5Y-88.0
X108.5Y-89.0
X108.5Y-90.0
X108.5Y-91.0
X108.5Y-92.0
X108.5Y-93.0
X108.5Y-94.0
X108.5Y-95.0
X108.5Y-96.0
X108.5Y-97.0
X108.5Y-117.508
X108.5Y-118.508
X108.5Y-119.508
X108.5Y-120.508
X108.5Y-121.508
X108.5Y-122.508
X108.5Y-123.508
X108.5Y-124.508
X108.5Y-125.508
X108.5Y-126.508
X108.5Y-127.508
X109.5Y-86.98
X109.5Y-87.98
X109.5Y-88.98
X109.5Y-89.98
X109.5Y-90.98
X109.5Y-91.98
X109.5Y-92.98
X109.5Y-93.98
X109.5Y-94.98
X109.5Y-95.98
X109.5Y-96.98
X109.5Y-117.508
X109.5Y-118.508
X109.5Y-119.508
X109.5Y-120.508
X109.5Y-121.508
X109.5Y-122.508
X109.5Y-123.508
X109.5Y-124.508
X109.5Y-125.508
X109.5Y-126.508
X109.5Y-127.508
X110.5Y-87.0
X110.5Y-88.0
X110.5Y-89.0
X110.5Y-90.0
X110.5Y-91.0
X110.5Y-92.0
X110.5Y-93.0
X110.5Y-94.0
X110.5Y-95.0
X110.5Y-96.0
X110.5Y-97.0
X110.5Y-117.508
X110.5Y-118.508
X110.5Y-119.508
X110.5Y-120.508
X110.5Y-121.508
X110.5Y-122.508
X110.5Y-123.508
X110.5Y-124.508
X110.5Y-125.508
X110.5Y-126.508
X110.5Y-127.508
X111.5Y-87.0
X111.5Y-88.0
X111.5Y-89.0
X111.5Y-90.0
X111.5Y-91.0
X111.5Y-92.0
X111.5Y-93.0
X111.5Y-94.0
X111.5Y-95.0
X111.5Y-96.0
X111.5Y-97.0
X111.5Y-117.5
X111.5Y-118.5
X111.5Y-119.5
X111.5Y-120.5
X111.5Y-121.5
X111.5Y-122.5
X111.5Y-123.5
X111.5Y-124.5
X111.5Y-125.5
X111.5Y-126.5
X111.5Y-127.5
X113.0Y-81.75
X123.0Y-83.75
X129.0Y-143.25
X137.75Y-98.0
X138.0Y-87.25
X147.25Y-146.0
X152.5Y-110.5
X153.0Y-98.75
X154.5Y-120.0
X154.5Y-132.0
X161.75Y-153.25
T2
X77.85Y-83.25
X77.85Y-153.25
X78.553Y-81.553
X78.553Y-84.947
X78.553Y-151.553
X78.553Y-154.947
X80.25Y-80.85
X80.25Y-85.65
X80.25Y-150.85
X80.25Y-155.65
X81.947Y-81.553
X81.947Y-84.947
X81.947Y-151.553
X81.947Y-154.947
X82.65Y-83.25
X82.65Y-153.25
X167.85Y-153.25
X168.553Y-151.553
X168.553Y-154.947
X170.25Y-150.85
X170.25Y-155.65
X171.947Y-151.553
X171.947Y-154.947
X172.65Y-153.25
T3
X188.979Y-102.471
X189.634Y-89.989
X193.609Y-147.471
X204.404Y-89.051
X206.109Y-147.471
X213.294Y-147.471
X216.904Y-89.051
X224.089Y-89.051
X225.794Y-147.471
X232.979Y-147.471
X236.589Y-89.051
X243.774Y-89.051
X245.479Y-147.471
X252.764Y-147.471
X256.274Y-89.051
X265.264Y-147.471
T4
X86.75Y-99.75
X86.75Y-114.75
X92.25Y-99.75
X92.25Y-114.75
X97.75Y-99.75
X97.75Y-114.75
X103.25Y-99.75
X103.25Y-114.75
X108.75Y-99.75
X108.75Y-114.75
X114.25Y-99.75
X114.25Y-114.75
X195.233Y-142.365
X196.031Y-127.146
X196.848Y-109.13
X197.646Y-93.911
X204.612Y-93.728
X205.409Y-108.947
X206.462Y-126.951
X207.259Y-142.17
X214.355Y-142.381
X215.153Y-127.162
X216.006Y-109.148
X216.804Y-93.929
X223.77Y-93.727
X224.568Y-108.947
X225.584Y-126.952
X226.382Y-142.171
X233.479Y-142.359
X234.276Y-127.14
X235.166Y-109.128
X235.963Y-93.909
X242.929Y-93.727
X243.727Y-108.946
X244.707Y-126.953
X245.505Y-142.173
X252.601Y-142.36
X253.399Y-127.14
X254.325Y-109.13
X255.122Y-93.911
X262.088Y-93.726
X262.886Y-108.946
X263.83Y-126.955
X264.627Y-142.174
T5
X80.25Y-114.75
X80.25Y-119.75
X80.25Y-124.75
X80.25Y-129.75
X80.25Y-134.75
X80.25Y-139.75
X80.25Y-144.75
T6
X143.25Y-138.35
X143.25Y-154.15
T7
X108.75Y-136.408
X108.75Y-146.408
X123.25Y-97.25
X123.25Y-105.25
X123.25Y-111.25
X123.25Y-119.25
X130.25Y-97.25
X130.25Y-105.25
X130.25Y-111.25
X130.25Y-119.25
T8
X176.75Y-139.25
X176.75Y-145.25
X176.75Y-151.25
X189.25Y-109.471
X189.25Y-141.471
X269.75Y-142.5
T9
X80.25Y-83.25
X80.25Y-153.25
X170.25Y-153.25
T0
M30
