G04 #@! TF.GenerationSoftware,KiCad,Pcbnew,6.0.2+dfsg-1*
G04 #@! TF.CreationDate,2024-12-12T20:43:20+00:00*
G04 #@! TF.ProjectId,HV_PSU,48565f50-5355-42e6-9b69-6361645f7063,rev?*
G04 #@! TF.SameCoordinates,Original*
G04 #@! TF.FileFunction,Soldermask,Bot*
G04 #@! TF.FilePolarity,Negative*
%FSLAX46Y46*%
G04 Gerber Fmt 4.6, Leading zero omitted, Abs format (unit mm)*
G04 Created by KiCad (PCBNEW 6.0.2+dfsg-1) date 2024-12-12 20:43:20*
%MOMM*%
%LPD*%
G01*
G04 APERTURE LIST*
G04 Aperture macros list*
%AMHorizOval*
0 Thick line with rounded ends*
0 $1 width*
0 $2 $3 position (X,Y) of the first rounded end (center of the circle)*
0 $4 $5 position (X,Y) of the second rounded end (center of the circle)*
0 Add line between two ends*
20,1,$1,$2,$3,$4,$5,0*
0 Add two circle primitives to create the rounded ends*
1,1,$1,$2,$3*
1,1,$1,$4,$5*%
%AMRotRect*
0 Rectangle, with rotation*
0 The origin of the aperture is its center*
0 $1 length*
0 $2 width*
0 $3 Rotation angle, in degrees counterclockwise*
0 Add horizontal line*
21,1,$1,$2,0,0,$3*%
G04 Aperture macros list end*
%ADD10RotRect,2.400000X2.400000X267.000000*%
%ADD11HorizOval,2.400000X0.000000X0.000000X0.000000X0.000000X0*%
%ADD12C,2.000000*%
%ADD13C,0.800000*%
%ADD14C,6.400000*%
%ADD15C,5.000000*%
%ADD16C,2.400000*%
%ADD17C,3.800000*%
%ADD18RotRect,2.400000X2.400000X93.000000*%
%ADD19HorizOval,2.400000X0.000000X0.000000X0.000000X0.000000X0*%
%ADD20R,4.000000X4.000000*%
%ADD21C,4.000000*%
%ADD22C,3.000000*%
%ADD23R,2.600000X2.600000*%
%ADD24C,2.600000*%
G04 APERTURE END LIST*
D10*
X234276243Y-127139968D03*
D11*
X233478643Y-142359082D03*
D12*
X204404466Y-89051376D03*
X216904466Y-89051376D03*
D13*
X77850000Y-153250000D03*
X82650000Y-153250000D03*
X78552944Y-151552944D03*
D14*
X80250000Y-153250000D03*
D13*
X80250000Y-155650000D03*
X80250000Y-150850000D03*
X81947056Y-151552944D03*
X78552944Y-154947056D03*
X81947056Y-154947056D03*
D15*
X130250000Y-97250000D03*
X123250000Y-97250000D03*
X130250000Y-105250000D03*
X123250000Y-105250000D03*
X123250000Y-111250000D03*
X130250000Y-111250000D03*
X123250000Y-119250000D03*
X130250000Y-119250000D03*
D16*
X92250000Y-99750000D03*
X92250000Y-114750000D03*
D17*
X176750000Y-145250000D03*
D12*
X243774466Y-89051376D03*
X256274466Y-89051376D03*
D13*
X168552944Y-154947056D03*
X167850000Y-153250000D03*
X171947056Y-151552944D03*
X168552944Y-151552944D03*
X170250000Y-155650000D03*
X172650000Y-153250000D03*
X170250000Y-150850000D03*
D14*
X170250000Y-153250000D03*
D13*
X171947056Y-154947056D03*
D17*
X176750000Y-151250000D03*
X189250000Y-109471376D03*
D18*
X224568065Y-108946546D03*
D19*
X223770465Y-93727432D03*
D12*
X232979466Y-147471376D03*
X245479466Y-147471376D03*
D18*
X245504570Y-142172571D03*
D19*
X244706970Y-126953457D03*
D18*
X207259356Y-142169723D03*
D19*
X206461756Y-126950609D03*
D12*
X193609466Y-147471376D03*
X206109466Y-147471376D03*
D20*
X108750000Y-146407832D03*
D21*
X108750000Y-136407832D03*
D10*
X235963316Y-93908720D03*
D11*
X235165716Y-109127834D03*
D16*
X103250000Y-99750000D03*
X103250000Y-114750000D03*
D10*
X215153096Y-127161983D03*
D11*
X214355496Y-142381097D03*
D18*
X262885756Y-108945596D03*
D19*
X262088156Y-93726482D03*
D18*
X205409221Y-108947021D03*
D19*
X204611621Y-93727907D03*
D18*
X226381963Y-142171147D03*
D19*
X225584363Y-126952033D03*
D12*
X213294466Y-147471376D03*
X225794466Y-147471376D03*
D16*
X114250000Y-99750000D03*
X114250000Y-114750000D03*
D22*
X143250000Y-154150000D03*
X143250000Y-138350000D03*
D10*
X253398800Y-127140443D03*
D11*
X252601200Y-142359557D03*
D18*
X243726909Y-108946071D03*
D19*
X242929309Y-93726957D03*
D10*
X255122110Y-93911094D03*
D11*
X254324510Y-109130208D03*
D18*
X264627183Y-142173995D03*
D19*
X263829583Y-126954881D03*
D12*
X224089466Y-89051376D03*
X236589466Y-89051376D03*
X188979466Y-102471376D03*
X189633665Y-89988507D03*
D10*
X197645554Y-93910619D03*
D11*
X196847954Y-109129733D03*
D17*
X269750000Y-142500000D03*
D12*
X252764466Y-147471376D03*
X265264466Y-147471376D03*
D17*
X189250000Y-141471376D03*
X176750000Y-139250000D03*
D10*
X216803933Y-93928836D03*
D11*
X216006333Y-109147950D03*
D10*
X196030954Y-127145665D03*
D11*
X195233354Y-142364779D03*
D13*
X81947056Y-81552944D03*
D14*
X80250000Y-83250000D03*
D13*
X81947056Y-84947056D03*
X78552944Y-81552944D03*
X80250000Y-85650000D03*
X80250000Y-80850000D03*
X77850000Y-83250000D03*
X82650000Y-83250000D03*
X78552944Y-84947056D03*
D23*
X80250000Y-114750000D03*
D24*
X80250000Y-119750000D03*
X80250000Y-124750000D03*
X80250000Y-129750000D03*
X80250000Y-134750000D03*
X80250000Y-139750000D03*
X80250000Y-144750000D03*
D16*
X108750000Y-99750000D03*
X108750000Y-114750000D03*
X86750000Y-99750000D03*
X86750000Y-114750000D03*
X97750000Y-99750000D03*
X97750000Y-114750000D03*
G36*
X109442121Y-117020002D02*
G01*
X109488614Y-117073658D01*
X109500000Y-117126000D01*
X109500000Y-128374000D01*
X109479998Y-128442121D01*
X109426342Y-128488614D01*
X109374000Y-128500000D01*
X99876000Y-128500000D01*
X99807879Y-128479998D01*
X99761386Y-128426342D01*
X99750000Y-128374000D01*
X99750000Y-117126000D01*
X99770002Y-117057879D01*
X99823658Y-117011386D01*
X99876000Y-117000000D01*
X109374000Y-117000000D01*
X109442121Y-117020002D01*
G37*
G36*
X109442121Y-86120002D02*
G01*
X109488614Y-86173658D01*
X109500000Y-86226000D01*
X109500000Y-97474000D01*
X109479998Y-97542121D01*
X109426342Y-97588614D01*
X109374000Y-97600000D01*
X99876000Y-97600000D01*
X99807879Y-97579998D01*
X99761386Y-97526342D01*
X99750000Y-97474000D01*
X99750000Y-86226000D01*
X99770002Y-86157879D01*
X99823658Y-86111386D01*
X99876000Y-86100000D01*
X109374000Y-86100000D01*
X109442121Y-86120002D01*
G37*
M02*
